<svg width="156" height="40" viewBox="0 0 156 40" fill="none" xmlns="http://www.w3.org/2000/svg"><path d="M48.9521 21.2441C48.9521 23.8608 50.3547 25.1295 53.2468 25.1295H59.1323V22.6786H53.5144C52.4154 22.6786 51.9309 22.2605 51.9309 21.3162V20.9197H58.7852V18.613H51.9309V16.9839H59.1612V14.533H48.9665L48.9521 21.2441Z" fill="currentColor"></path><path d="M15.4353 0C13.7627 -1.09204e-06 12.1586 0.663771 10.9752 1.84551C9.79182 3.02726 9.12606 4.63031 9.12415 6.3025V18.2441H6.4338C4.72805 18.246 3.09268 18.9243 1.88652 20.1302C0.68037 21.3361 0.00190907 22.971 0 24.6764V40H6.24627C7.95077 39.9962 9.58424 39.3171 10.7888 38.1114C11.9934 36.9057 12.6709 35.2718 12.6728 33.5677V21.7992H33.0106C34.664 21.7973 36.2491 21.1392 37.4176 19.9697C38.5861 18.8001 39.2424 17.2146 39.2424 15.5616V0H15.4353ZM9.13137 33.5821C9.13137 34.3471 8.8274 35.0808 8.28634 35.6217C7.74528 36.1627 7.01144 36.4666 6.24627 36.4666H3.5487V24.6692C3.5487 23.9042 3.85267 23.1705 4.39373 22.6296C4.93479 22.0886 5.66863 21.7847 6.4338 21.7847H9.12415L9.13137 33.5821ZM35.6937 15.5544C35.6937 16.2646 35.412 16.9458 34.9104 17.4486C34.4088 17.9515 33.7282 18.235 33.0178 18.2369H12.68V6.28808C12.6819 5.55876 12.9731 4.85994 13.4896 4.34491C14.0061 3.82987 14.7058 3.54065 15.4353 3.54066H35.6937V15.5544Z" fill="url(#paint0_linear_327_173)"></path><path d="M73.3571 19.1744C72.7164 18.9753 72.0646 18.8141 71.4049 18.6914C70.9205 18.5905 70.4722 18.5256 70.0384 18.4535C69.3601 18.3858 68.6939 18.2282 68.0573 17.985C67.5946 17.7471 67.5946 17.502 67.5946 17.4227C67.5946 16.9037 68.2598 16.637 69.5757 16.637C71.1535 16.6398 72.7273 16.7943 74.2754 17.0983L74.6079 17.1704V14.8204L74.4055 14.7772C72.9596 14.4238 71.4765 14.2447 69.9878 14.2437C66.6185 14.2437 64.688 15.4548 64.688 17.5669C64.6989 18.2105 64.9255 18.8319 65.3317 19.3322C65.7379 19.8325 66.3003 20.183 66.9294 20.3277C67.5674 20.5275 68.2169 20.6888 68.8743 20.8107C69.2937 20.89 69.7058 20.9549 70.1035 21.0198C71.4555 21.2288 72.6268 21.409 72.6268 21.9929C72.6268 22.4686 72.3087 23.0093 69.8287 23.0093C68.3086 23.0436 66.7961 22.7841 65.3749 22.2452L64.9844 22.0794V24.6744L65.1724 24.7321C66.6895 25.1886 68.2658 25.4194 69.8504 25.4169C71.3149 25.4981 72.7746 25.1896 74.0801 24.5231C74.5496 24.2616 74.9393 23.8782 75.2079 23.4137C75.4765 22.9492 75.614 22.4209 75.6057 21.8848C75.5921 21.2465 75.3626 20.6315 74.9544 20.1395C74.5463 19.6475 73.9834 19.3074 73.3571 19.1744Z" fill="currentColor"></path><path d="M79.6699 16.9815H84.1455V25.1271H87.1316V16.9815H91.4842L91.4986 14.5378H79.6699V16.9815Z" fill="currentColor"></path><path d="M98.9312 14.5375L93.357 25.1268H96.6032L100.196 17.702L103.782 25.1268H107.108L101.534 14.5375H98.9312Z" fill="currentColor"></path><path d="M121.449 15.5114C120.318 14.7906 118.986 14.4473 117.646 14.5311H111.789V25.1276H114.783V22.4172H117.675C119.014 22.4996 120.344 22.1591 121.478 21.444C121.908 21.0779 122.254 20.6231 122.49 20.111C122.727 19.5989 122.85 19.0417 122.85 18.4777C122.85 17.9138 122.727 17.3565 122.49 16.8444C122.254 16.3323 121.908 15.8775 121.478 15.5114H121.449ZM119.858 18.4741C119.858 19.8005 118.47 19.9951 117.646 19.9951H114.754V16.9531H117.646C118.658 16.9531 119.858 17.2198 119.858 18.4741Z" fill="currentColor"></path><path d="M153.514 21.7271C154.165 21.4573 154.714 20.9894 155.083 20.3901C155.452 19.7907 155.621 19.0906 155.567 18.3896C155.567 15.9026 153.774 14.533 150.506 14.533H144.259V25.1295H147.252V22.2461H150.571L152.444 25.1295H156.001L153.514 21.7271ZM152.624 18.3896C152.624 19.6582 151.453 19.925 150.455 19.925H147.238V16.9407H150.455C151.439 16.9407 152.624 17.1929 152.624 18.3896Z" fill="currentColor"></path><path d="M131.386 14.5378L125.811 25.1271H129.058L132.644 17.7023L136.229 25.1271H139.555L133.981 14.5378H131.386Z" fill="currentColor"></path><defs><linearGradient id="paint0_linear_327_173" x1="39.2424" y1="-0.0000377744" x2="-0.907166" y2="0.932249" gradientUnits="userSpaceOnUse"><stop stop-color="#70D44B"></stop><stop offset="1" stop-color="#74E0C1"></stop></linearGradient></defs></svg>